<svg width="104" height="221" viewBox="0 0 104 221" fill="none" xmlns="http://www.w3.org/2000/svg">
<path d="M13.2814 118.474C15.9127 110.717 27.8869 70.3719 12.7996 17.0103C-2.80889 -38.1943 45.1312 65.8534 52.1347 81.1647C52.4848 81.9301 53.5064 81.9506 53.8832 81.1979C60.9363 67.1106 106.375 -23.3472 91.3011 14.5103C76.5771 51.4902 88.4139 105.406 90.8765 115.623C91.0591 116.381 91.9979 116.627 92.5675 116.095C96.4495 112.469 107.477 103.425 99.9766 125.51C91.2627 151.168 82.3843 172.436 81.8285 173.762C81.8099 173.807 81.7949 173.852 81.7828 173.898L71.4092 213.905C71.3392 214.175 71.1546 214.406 70.9086 214.537C56.0279 222.454 48.2419 222.135 35.6409 214.535C35.4239 214.404 35.2616 214.192 35.1934 213.948L23.3203 171.397L23.318 171.389C23.3068 171.349 23.3011 171.328 23.283 171.287C22.6761 169.911 6.88043 134.049 1.97677 119.828C-2.21118 107.683 8.20928 115.883 11.7045 118.867C12.2396 119.324 13.0553 119.141 13.2814 118.474Z" fill="#FF0000" stroke="black"/>
<path d="M42.546 102.831C45.5213 108.012 44.8484 114.57 42.6899 120.141C40.4718 125.865 39.1432 130.748 33.4353 131.247C28.8598 131.648 26.3541 129.84 23.9042 126.395C19.2512 119.852 22.2082 110.305 24.2444 102.539C25.3913 98.1638 25.5068 94.7998 30.2105 94.3882C36.3156 93.8541 39.0768 96.79 42.546 102.831Z" fill="black"/>
<path d="M77.1901 98.2139C80.6754 105.583 79.3542 114.963 77.0991 122.797C75.6301 127.9 76.045 131.046 71.3706 131.291C67.2748 131.506 65.8314 128.398 64.0339 124.202C60.7926 116.636 60.5622 107.106 63.0219 99.2506C64.6179 94.1533 64.5504 91.5935 69.2772 91.3458C73.4234 91.1285 75.2185 94.0449 77.1901 98.2139Z" fill="black"/>
<path d="M65.0887 185.585C71.1908 184.931 70.0362 189.34 65.1693 193.079C61.6462 195.785 58.13 197.829 51.9752 196.633C45.0697 195.291 41.4915 190.932 38.9873 186.496C36.7549 182.542 37.5371 178.079 41.5137 180.272C44.5895 181.969 48.7767 184.476 53.8242 185.457C57.8376 186.237 61.8027 185.937 65.0887 185.585Z" fill="black"/>
<path d="M44.4824 182.053C44.4932 182.021 44.4847 181.985 44.4606 181.961V181.961C44.3864 181.887 44.477 181.767 44.5685 181.818L47.6056 183.517V183.517C47.4531 183.445 47.2725 183.469 47.1436 183.578L43.3417 186.789C43.1535 186.948 42.8826 186.735 42.9928 186.515V186.515C42.9976 186.505 43.0017 186.495 43.0051 186.485L44.4824 182.053Z" fill="#EFFFAD"/>
<path d="M61.6972 185.893L62.9984 185.774L64.8651 185.611C64.9287 185.605 64.9822 185.561 65 185.5V185.5L63.5553 190.479C63.4826 190.729 63.1202 190.706 63.0804 190.448V190.448C63.0786 190.437 63.0761 190.426 63.0727 190.414L61.6972 185.893Z" fill="#EFFFAD"/>
<path d="M70.3158 107.643C74.1243 107.453 74.7601 116.478 70.9614 116.81V116.81V116.81C67.4384 117.119 66.6372 107.962 70.1602 107.654V107.654C70.2131 107.649 70.2649 107.645 70.3158 107.643Z" fill="white"/>
<path d="M31.3158 110.643C35.1243 110.453 35.7601 119.478 31.9614 119.81V119.81V119.81C28.4384 120.119 27.6372 110.962 31.1602 110.654V110.654C31.2131 110.649 31.2649 110.645 31.3158 110.643Z" fill="white"/>
<path d="M54.0114 196.987C51.8918 196.905 49.813 196.256 47.8562 195.438C47.0723 195.11 46.5268 194.818 46.5987 194.505C46.6877 194.119 49.2145 192.852 51.8675 191.909C54.9845 190.801 57.6516 192.618 56.076 195.527C55.8095 196.019 55.5953 196.399 55.5558 196.57C55.4721 196.933 54.968 197.024 54.0114 196.987Z" fill="#FF7676"/>
</svg>
